<svg width="24" height="24" viewBox="0 0 24 24" fill="none" xmlns="http://www.w3.org/2000/svg">
<path d="M14 10.1213V8.42127C14.55 8.18793 15.1125 8.01293 15.6875 7.89627C16.2625 7.7796 16.8667 7.72127 17.5 7.72127C17.9333 7.72127 18.3583 7.7546 18.775 7.82127C19.1917 7.88793 19.6 7.97127 20 8.07127V9.67127C19.6 9.52127 19.1958 9.40877 18.7875 9.33377C18.3792 9.25877 17.95 9.22127 17.5 9.22127C16.8667 9.22127 16.2583 9.30043 15.675 9.45877C15.0917 9.6171 14.5333 9.83793 14 10.1213ZM14 15.6213V13.9213C14.55 13.6879 15.1125 13.5129 15.6875 13.3963C16.2625 13.2796 16.8667 13.2213 17.5 13.2213C17.9333 13.2213 18.3583 13.2546 18.775 13.3213C19.1917 13.3879 19.6 13.4713 20 13.5713V15.1713C19.6 15.0213 19.1958 14.9088 18.7875 14.8338C18.3792 14.7588 17.95 14.7213 17.5 14.7213C16.8667 14.7213 16.2583 14.7963 15.675 14.9463C15.0917 15.0963 14.5333 15.3213 14 15.6213ZM14 12.8713V11.1713C14.55 10.9379 15.1125 10.7629 15.6875 10.6463C16.2625 10.5296 16.8667 10.4713 17.5 10.4713C17.9333 10.4713 18.3583 10.5046 18.775 10.5713C19.1917 10.6379 19.6 10.7213 20 10.8213V12.4213C19.6 12.2713 19.1958 12.1588 18.7875 12.0838C18.3792 12.0088 17.95 11.9713 17.5 11.9713C16.8667 11.9713 16.2583 12.0504 15.675 12.2088C15.0917 12.3671 14.5333 12.5879 14 12.8713ZM6.50001 16.2213C7.28334 16.2213 8.04584 16.3088 8.78751 16.4838C9.52918 16.6588 10.2667 16.9213 11 17.2713V7.42127C10.3167 7.02127 9.59168 6.72127 8.82501 6.52127C8.05834 6.32127 7.28334 6.22127 6.50001 6.22127C5.90001 6.22127 5.30418 6.2796 4.71251 6.39627C4.12084 6.51293 3.55001 6.68793 3.00001 6.92127V16.8213C3.58334 16.6213 4.16251 16.4713 4.73751 16.3713C5.31251 16.2713 5.90001 16.2213 6.50001 16.2213ZM13 17.2713C13.7333 16.9213 14.4708 16.6588 15.2125 16.4838C15.9542 16.3088 16.7167 16.2213 17.5 16.2213C18.1 16.2213 18.6875 16.2713 19.2625 16.3713C19.8375 16.4713 20.4167 16.6213 21 16.8213V6.92127C20.45 6.68793 19.8792 6.51293 19.2875 6.39627C18.6958 6.2796 18.1 6.22127 17.5 6.22127C16.7167 6.22127 15.9417 6.32127 15.175 6.52127C14.4083 6.72127 13.6833 7.02127 13 7.42127V17.2713ZM12.018 20.4425C11.214 19.8132 10.3453 19.3155 9.41201 18.9495C8.47868 18.5835 7.50801 18.4005 6.50001 18.4005C5.81368 18.4005 5.13951 18.4932 4.47751 18.6785C3.81568 18.8639 3.18042 19.1192 2.57176 19.4445C2.16592 19.6559 1.77159 19.6463 1.38876 19.4158C1.00609 19.1851 0.814758 18.8489 0.814758 18.407V6.36302C0.814758 6.12385 0.871508 5.89868 0.985008 5.68752C1.09868 5.47618 1.26909 5.31768 1.49626 5.21202C2.27092 4.81602 3.07693 4.52102 3.91426 4.32702C4.75143 4.13285 5.60718 4.03577 6.48151 4.03577C7.45651 4.03577 8.40851 4.16077 9.33751 4.41077C10.2665 4.66077 11.154 5.04177 12 5.55377C12.85 5.04577 13.7385 4.66577 14.6655 4.41377C15.5925 4.16177 16.5435 4.03577 17.5185 4.03577C18.3928 4.03577 19.2486 4.13285 20.0858 4.32702C20.9231 4.52102 21.7291 4.81602 22.5038 5.21202C22.7309 5.31768 22.9013 5.47618 23.015 5.68752C23.1285 5.89868 23.1853 6.12385 23.1853 6.36302V18.4968C23.1853 18.9239 22.9949 19.2425 22.6143 19.4525C22.2334 19.6625 21.8381 19.6599 21.4283 19.4445C20.8196 19.1192 20.1843 18.8639 19.5225 18.6785C18.8605 18.4932 18.1863 18.4005 17.5 18.4005C16.5 18.4005 15.5363 18.5845 14.609 18.9525C13.6817 19.3204 12.818 19.817 12.018 20.4425Z" fill="url(#paint0_linear_14_11)"/>
<defs>
<linearGradient id="paint0_linear_14_11" x1="23.1853" y1="12.2391" x2="0.814758" y2="12.2391" gradientUnits="userSpaceOnUse">
<stop stop-color="#214DE8"/>
<stop offset="1" stop-color="#3599D1"/>
</linearGradient>
</defs>
</svg>
