<svg width="476" height="48" viewBox="0 0 476 48" fill="none" xmlns="http://www.w3.org/2000/svg">
<path d="M0.00799561 2.4H24.968L25.448 11.904H24.584C23.24 8.672 21.832 6.464 20.36 5.28C18.888 4.064 16.728 3.456 13.88 3.456H12.2V18.288H13.832C15.336 18.288 16.6 17.728 17.624 16.608C18.648 15.456 19.368 13.92 19.784 12H20.504V26.208H19.688C19.112 23.808 18.328 22.096 17.336 21.072C16.376 20.048 15.048 19.536 13.352 19.536H12.2V34.944H14.024C16.968 34.944 19.464 34.064 21.512 32.304C23.592 30.544 25.016 28.288 25.784 25.536H26.744L26.36 36H0.00799561V34.944H2.84V3.456H0.00799561V2.4Z" fill="#141414"/>
<path d="M39.1771 26.064C39.1771 29.424 39.3531 31.664 39.7051 32.784C40.0571 33.872 40.6971 34.416 41.6251 34.416C42.5851 34.416 43.4011 34 44.0731 33.168C44.7771 32.336 45.1291 31.104 45.1291 29.472V19.008C45.1291 17.632 44.8571 16.464 44.3131 15.504C43.7691 14.544 42.9691 14.064 41.9131 14.064C40.8571 14.064 40.1371 14.768 39.7531 16.176C39.3691 17.584 39.1771 20.048 39.1771 23.568V26.064ZM45.7531 36L45.2251 32.64C44.1371 35.2 41.9291 36.48 38.6011 36.48C35.8491 36.48 33.7051 35.488 32.1691 33.504C30.6651 31.52 29.9131 28.56 29.9131 24.624C29.9131 16.656 33.0811 12.672 39.4171 12.672C42.2331 12.672 44.0891 13.456 44.9851 15.024V0.864H42.0571V0H54.0571V35.136H56.4091V36H45.7531Z" fill="#141414"/>
<path d="M85.4975 36H74.5535L74.0255 32.496C73.5135 33.776 72.7455 34.768 71.7215 35.472C70.7295 36.144 69.2415 36.48 67.2575 36.48C62.2975 36.48 59.8175 33.808 59.8175 28.464V14.016H57.1295V13.152H68.7455V29.616C68.7455 31.536 68.8735 32.8 69.1295 33.408C69.4175 34.016 69.9615 34.32 70.7615 34.32C71.5935 34.32 72.3295 33.824 72.9695 32.832C73.6095 31.84 73.9295 30.464 73.9295 28.704V14.016H71.7215V13.152H82.8575V35.136H85.4975V36Z" fill="#141414"/>
<path d="M98 24.72H99.392V21.024C99.392 17.984 99.216 15.952 98.864 14.928C98.544 13.872 97.904 13.344 96.944 13.344C96.368 13.344 95.84 13.504 95.36 13.824C94.912 14.112 94.688 14.528 94.688 15.072C94.688 15.584 94.784 16.112 94.976 16.656H96.176C96.432 17.328 96.56 18.144 96.56 19.104C96.56 20.032 96.16 20.848 95.36 21.552C94.56 22.224 93.552 22.56 92.336 22.56C89.584 22.56 88.208 21.232 88.208 18.576C88.208 14.64 91.552 12.672 98.24 12.672C102.048 12.672 104.672 13.328 106.112 14.64C107.584 15.92 108.32 18.288 108.32 21.744V31.488C108.32 33.152 108.784 33.984 109.712 33.984C110.8 33.984 111.44 32.336 111.632 29.04L112.352 29.088C112.224 31.904 111.696 33.84 110.768 34.896C109.84 35.952 108.32 36.48 106.208 36.48C102.368 36.48 100.16 35.296 99.584 32.928C99.168 34.144 98.544 35.04 97.712 35.616C96.88 36.192 95.664 36.48 94.064 36.48C89.328 36.48 86.96 34.544 86.96 30.672C86.96 28.4 87.856 26.848 89.648 26.016C91.472 25.152 94.256 24.72 98 24.72ZM96.08 30.624C96.08 32.288 96.16 33.36 96.32 33.84C96.512 34.32 96.848 34.56 97.328 34.56C97.84 34.56 98.304 34.16 98.72 33.36C99.168 32.528 99.392 31.392 99.392 29.952V25.488H99.056C97.072 25.488 96.08 26.944 96.08 29.856V30.624Z" fill="#141414"/>
<path d="M128.856 14.496C127.672 14.496 126.632 15.264 125.736 16.8C124.84 18.336 124.392 20.16 124.392 22.272V35.136H127.8V36H112.824V35.136H115.464V14.016H112.824V13.152H124.392V17.76C124.808 16.128 125.608 14.88 126.792 14.016C127.976 13.12 129.32 12.672 130.824 12.672C132.328 12.672 133.544 13.104 134.472 13.968C135.432 14.8 135.912 16 135.912 17.568C135.912 19.104 135.56 20.288 134.856 21.12C134.152 21.952 133.064 22.368 131.592 22.368C130.152 22.368 129.08 21.888 128.376 20.928C127.704 19.968 127.624 18.64 128.136 16.944H129.864C130.664 15.312 130.328 14.496 128.856 14.496Z" fill="#141414"/>
<path d="M146.333 26.064C146.333 29.424 146.509 31.664 146.861 32.784C147.213 33.872 147.853 34.416 148.781 34.416C149.741 34.416 150.557 34 151.229 33.168C151.933 32.336 152.285 31.104 152.285 29.472V19.008C152.285 17.632 152.013 16.464 151.469 15.504C150.925 14.544 150.125 14.064 149.069 14.064C148.013 14.064 147.293 14.768 146.909 16.176C146.525 17.584 146.333 20.048 146.333 23.568V26.064ZM152.909 36L152.381 32.64C151.293 35.2 149.085 36.48 145.757 36.48C143.005 36.48 140.861 35.488 139.325 33.504C137.821 31.52 137.069 28.56 137.069 24.624C137.069 16.656 140.237 12.672 146.573 12.672C149.389 12.672 151.245 13.456 152.141 15.024V0.864H149.213V0H161.213V35.136H163.565V36H152.909Z" fill="#141414"/>
<path d="M180.312 26.544V22.464C180.312 19.36 180.136 17.104 179.784 15.696C179.464 14.256 178.696 13.536 177.48 13.536C176.776 13.536 176.2 13.744 175.752 14.16C175.336 14.544 175.032 15.2 174.84 16.128C174.552 17.568 174.408 19.76 174.408 22.704V26.448C174.408 29.936 174.504 32.032 174.696 32.736C174.92 33.44 175.144 34.016 175.368 34.464C175.72 35.232 176.408 35.616 177.432 35.616C178.68 35.616 179.496 34.896 179.88 33.456C180.168 32.432 180.312 30.128 180.312 26.544ZM177.336 36.48C173.336 36.48 170.312 35.456 168.264 33.408C166.216 31.36 165.192 28.432 165.192 24.624C165.192 20.784 166.28 17.84 168.456 15.792C170.664 13.712 173.752 12.672 177.72 12.672C181.688 12.672 184.648 13.632 186.6 15.552C188.552 17.44 189.528 20.336 189.528 24.24C189.528 32.4 185.464 36.48 177.336 36.48Z" fill="#141414"/>
<path d="M233.288 18.624C233.288 25.216 231.432 29.808 227.72 32.4C224.296 34.8 219.592 36 213.608 36H200.024V35.088H203.192V3.312H200.024V2.4H214.856C221 2.4 225.608 3.664 228.68 6.192C231.752 8.688 233.288 12.832 233.288 18.624ZM212.552 35.088H214.376C217.608 35.088 219.912 33.952 221.288 31.68C222.696 29.376 223.4 25.536 223.4 20.16V17.376C223.4 10.176 222.024 5.84 219.272 4.368C217.96 3.664 216.104 3.312 213.704 3.312H212.552V35.088Z" fill="#141414"/>
<path d="M248.354 36.48C244.226 36.48 241.122 35.424 239.042 33.312C236.994 31.168 235.97 28.208 235.97 24.432C235.97 20.624 237.122 17.712 239.426 15.696C241.762 13.68 244.722 12.672 248.306 12.672C255.57 12.672 259.058 16.32 258.77 23.616H245.234V25.488C245.234 28.624 245.634 30.992 246.434 32.592C247.234 34.192 248.626 34.992 250.61 34.992C254.322 34.992 256.754 33.008 257.906 29.04L258.77 29.184C258.162 31.488 257.058 33.28 255.458 34.56C253.89 35.84 251.522 36.48 248.354 36.48ZM245.282 22.656H250.226V20.304C250.226 17.712 250.066 15.952 249.746 15.024C249.458 14.064 248.85 13.584 247.922 13.584C247.026 13.584 246.354 14.096 245.906 15.12C245.49 16.112 245.282 17.84 245.282 20.304V22.656Z" fill="#141414"/>
<path d="M261.115 36.48V27.888H261.691C262.523 30.672 263.643 32.624 265.051 33.744C266.459 34.864 268.219 35.424 270.331 35.424C273.595 35.424 275.227 34.384 275.227 32.304C275.227 31.408 274.827 30.736 274.027 30.288C272.779 29.584 271.179 29.04 269.227 28.656C267.051 28.08 265.227 27.312 263.755 26.352C261.995 25.2 261.115 23.376 261.115 20.88C261.115 18.384 261.883 16.4 263.419 14.928C264.955 13.424 267.003 12.672 269.563 12.672C271.131 12.672 272.747 13.04 274.411 13.776C275.019 14.032 275.483 14.16 275.803 14.16C276.123 14.16 276.395 14.048 276.619 13.824C276.843 13.6 277.115 13.184 277.435 12.576H277.963V19.92H277.387C275.755 15.76 273.227 13.68 269.803 13.68C268.299 13.68 267.179 13.952 266.443 14.496C265.707 15.008 265.339 15.664 265.339 16.464C265.339 16.944 265.451 17.328 265.675 17.616C265.899 17.872 266.075 18.064 266.203 18.192C266.331 18.32 266.539 18.464 266.827 18.624C267.115 18.752 267.355 18.864 267.547 18.96C267.739 19.024 268.027 19.12 268.411 19.248C268.827 19.376 269.131 19.456 269.323 19.488C271.499 20.032 273.067 20.512 274.027 20.928C274.987 21.312 275.899 21.792 276.763 22.368C278.523 23.584 279.403 25.552 279.403 28.272C279.403 30.96 278.603 33.008 277.003 34.416C275.403 35.792 273.211 36.48 270.427 36.48C268.443 36.48 266.523 36.016 264.667 35.088C264.283 34.832 263.979 34.704 263.755 34.704C263.051 34.704 262.363 35.296 261.691 36.48H261.115Z" fill="#141414"/>
<path d="M298.016 23.088C298.016 19.792 297.856 17.584 297.536 16.464C297.216 15.312 296.592 14.736 295.664 14.736C294.736 14.736 293.904 15.344 293.168 16.56C292.432 17.744 292.064 19.344 292.064 21.36V30.144C292.064 31.52 292.336 32.688 292.88 33.648C293.424 34.608 294.224 35.088 295.28 35.088C296.336 35.088 297.056 34.384 297.44 32.976C297.824 31.568 298.016 29.104 298.016 25.584V23.088ZM291.968 13.152V16.944C293.216 14.096 295.424 12.672 298.592 12.672C301.344 12.672 303.472 13.664 304.976 15.648C306.512 17.632 307.28 20.64 307.28 24.672C307.28 28.704 306.448 31.68 304.784 33.6C303.152 35.52 300.688 36.48 297.392 36.48C295.856 36.48 294.704 36.288 293.936 35.904C293.168 35.52 292.544 34.928 292.064 34.128V46.56H298.256V47.424H280.496V46.56H283.136V14.016H280.592V13.152H291.968Z" fill="#141414"/>
<path d="M308.522 0H320.282V35.136H322.97V36H308.714V35.136H311.354V0.864H308.522V0Z" fill="#141414"/>
<path d="M335.422 24.72H336.814V21.024C336.814 17.984 336.638 15.952 336.286 14.928C335.966 13.872 335.326 13.344 334.366 13.344C333.79 13.344 333.262 13.504 332.782 13.824C332.334 14.112 332.11 14.528 332.11 15.072C332.11 15.584 332.206 16.112 332.398 16.656H333.598C333.854 17.328 333.982 18.144 333.982 19.104C333.982 20.032 333.582 20.848 332.782 21.552C331.982 22.224 330.974 22.56 329.758 22.56C327.006 22.56 325.63 21.232 325.63 18.576C325.63 14.64 328.974 12.672 335.662 12.672C339.47 12.672 342.094 13.328 343.534 14.64C345.006 15.92 345.742 18.288 345.742 21.744V31.488C345.742 33.152 346.206 33.984 347.134 33.984C348.222 33.984 348.862 32.336 349.054 29.04L349.774 29.088C349.646 31.904 349.118 33.84 348.19 34.896C347.262 35.952 345.742 36.48 343.63 36.48C339.79 36.48 337.582 35.296 337.006 32.928C336.59 34.144 335.966 35.04 335.134 35.616C334.302 36.192 333.086 36.48 331.486 36.48C326.75 36.48 324.382 34.544 324.382 30.672C324.382 28.4 325.278 26.848 327.07 26.016C328.894 25.152 331.678 24.72 335.422 24.72ZM333.502 30.624C333.502 32.288 333.582 33.36 333.742 33.84C333.934 34.32 334.27 34.56 334.75 34.56C335.262 34.56 335.726 34.16 336.142 33.36C336.59 32.528 336.814 31.392 336.814 29.952V25.488H336.478C334.494 25.488 333.502 26.944 333.502 29.856V30.624Z" fill="#141414"/>
<path d="M350.342 13.152H361.91V17.568C362.422 16.096 363.206 14.912 364.262 14.016C365.318 13.12 366.918 12.672 369.062 12.672C374.022 12.672 376.502 15.344 376.502 20.688V35.136H379.19V36H365.606V35.136H367.574V19.536C367.574 17.616 367.446 16.384 367.19 15.84C366.934 15.264 366.47 14.976 365.798 14.976C364.774 14.976 363.862 15.648 363.062 16.992C362.294 18.336 361.91 19.968 361.91 21.888V35.136H363.974V36H350.342V35.136H352.982V14.016H350.342V13.152Z" fill="#141414"/>
<path d="M393.264 13.536C391.856 13.536 390.848 14.304 390.24 15.84C389.632 17.376 389.328 19.92 389.328 23.472V25.968C389.328 29.136 389.68 31.408 390.384 32.784C391.088 34.16 392.384 34.848 394.272 34.848C396.16 34.848 397.664 34.208 398.784 32.928C399.904 31.648 400.624 30.192 400.944 28.56L401.808 28.656C401.2 31.408 400.08 33.392 398.448 34.608C396.784 35.856 394.496 36.48 391.584 36.48C387.872 36.48 385.024 35.488 383.04 33.504C381.056 31.488 380.064 28.56 380.064 24.72C380.064 20.848 381.184 17.872 383.424 15.792C385.696 13.712 388.848 12.672 392.88 12.672C395.728 12.672 397.904 13.232 399.408 14.352C400.912 15.44 401.664 16.816 401.664 18.48C401.664 20.144 401.296 21.36 400.56 22.128C399.856 22.896 398.864 23.28 397.584 23.28C396.336 23.28 395.328 22.944 394.56 22.272C393.792 21.6 393.408 20.608 393.408 19.296C393.408 18.72 393.488 18.144 393.648 17.568H395.232C395.456 16.928 395.568 16.352 395.568 15.84C395.568 14.304 394.8 13.536 393.264 13.536Z" fill="#141414"/>
<path d="M402.558 0H414.126V17.568C414.638 16.096 415.422 14.912 416.478 14.016C417.534 13.12 419.134 12.672 421.278 12.672C426.238 12.672 428.718 15.344 428.718 20.688V35.136H431.406V36H417.822V35.136H419.79V19.536C419.79 17.616 419.662 16.384 419.406 15.84C419.15 15.264 418.686 14.976 418.014 14.976C416.99 14.976 416.078 15.648 415.278 16.992C414.51 18.336 414.126 19.968 414.126 21.888V35.136H416.19V36H402.558V35.136H405.198V0.864H402.558V0Z" fill="#141414"/>
<path d="M444.76 36.48C440.632 36.48 437.528 35.424 435.448 33.312C433.4 31.168 432.376 28.208 432.376 24.432C432.376 20.624 433.528 17.712 435.832 15.696C438.168 13.68 441.128 12.672 444.712 12.672C451.976 12.672 455.464 16.32 455.176 23.616H441.64V25.488C441.64 28.624 442.04 30.992 442.84 32.592C443.64 34.192 445.032 34.992 447.016 34.992C450.728 34.992 453.16 33.008 454.312 29.04L455.176 29.184C454.568 31.488 453.464 33.28 451.864 34.56C450.296 35.84 447.928 36.48 444.76 36.48ZM441.688 22.656H446.632V20.304C446.632 17.712 446.472 15.952 446.152 15.024C445.864 14.064 445.256 13.584 444.328 13.584C443.432 13.584 442.76 14.096 442.312 15.12C441.896 16.112 441.688 17.84 441.688 20.304V22.656Z" fill="#141414"/>
<path d="M457.521 36.48V27.888H458.098C458.93 30.672 460.049 32.624 461.457 33.744C462.865 34.864 464.625 35.424 466.737 35.424C470.001 35.424 471.633 34.384 471.633 32.304C471.633 31.408 471.234 30.736 470.434 30.288C469.186 29.584 467.585 29.04 465.633 28.656C463.457 28.08 461.633 27.312 460.161 26.352C458.401 25.2 457.521 23.376 457.521 20.88C457.521 18.384 458.29 16.4 459.826 14.928C461.362 13.424 463.409 12.672 465.969 12.672C467.537 12.672 469.154 13.04 470.818 13.776C471.426 14.032 471.89 14.16 472.21 14.16C472.53 14.16 472.801 14.048 473.025 13.824C473.249 13.6 473.521 13.184 473.841 12.576H474.37V19.92H473.793C472.161 15.76 469.634 13.68 466.21 13.68C464.706 13.68 463.585 13.952 462.849 14.496C462.113 15.008 461.745 15.664 461.745 16.464C461.745 16.944 461.857 17.328 462.081 17.616C462.305 17.872 462.481 18.064 462.609 18.192C462.737 18.32 462.945 18.464 463.233 18.624C463.521 18.752 463.761 18.864 463.953 18.96C464.145 19.024 464.434 19.12 464.818 19.248C465.234 19.376 465.537 19.456 465.729 19.488C467.905 20.032 469.474 20.512 470.434 20.928C471.394 21.312 472.305 21.792 473.169 22.368C474.929 23.584 475.81 25.552 475.81 28.272C475.81 30.96 475.009 33.008 473.409 34.416C471.809 35.792 469.617 36.48 466.833 36.48C464.849 36.48 462.929 36.016 461.073 35.088C460.689 34.832 460.385 34.704 460.161 34.704C459.457 34.704 458.77 35.296 458.098 36.48H457.521Z" fill="#141414"/>
</svg>
