<svg width="44" height="44" viewBox="0 0 44 44" fill="none" xmlns="http://www.w3.org/2000/svg">
<path d="M35.2 5.8667H8.80003C7.17937 5.8667 5.8667 7.17937 5.8667 8.80003V35.2C5.8667 36.8207 7.17937 38.1334 8.80003 38.1334H35.2C36.8207 38.1334 38.1334 36.8207 38.1334 35.2V8.80003C38.1334 7.17937 36.8207 5.8667 35.2 5.8667ZM16.0659 32.2667H11.7392V18.3451H16.0659V32.2667ZM13.8586 16.3548C12.4638 16.3548 11.3359 15.224 11.3359 13.8322C11.3359 12.4403 12.4652 11.311 13.8586 11.311C15.249 11.311 16.3798 12.4418 16.3798 13.8322C16.3798 15.224 15.249 16.3548 13.8586 16.3548ZM32.2726 32.2667H27.9488V25.4966C27.9488 23.8818 27.9195 21.805 25.7004 21.805C23.4491 21.805 23.103 23.5635 23.103 25.3792V32.2667H18.7792V18.3451H22.9299V20.2474H22.9886C23.5664 19.1532 24.9774 17.999 27.082 17.999C31.463 17.999 32.2726 20.8824 32.2726 24.6312V32.2667Z" fill="url(#paint0_linear_15_18)"/>
<defs>
<linearGradient id="paint0_linear_15_18" x1="38.1334" y1="22" x2="5.8667" y2="22" gradientUnits="userSpaceOnUse">
<stop stop-color="#214DE8"/>
<stop offset="1" stop-color="#3599D1"/>
</linearGradient>
</defs>
</svg>
